<?xml version="1.0" encoding="UTF-8" standalone="no"?>
<svg width="62px" height="50px" viewBox="0 0 62 50" version="1.1" xmlns="http://www.w3.org/2000/svg" xmlns:xlink="http://www.w3.org/1999/xlink" xmlns:sketch="http://www.bohemiancoding.com/sketch/ns">
    <!-- Generator: Sketch 3.3.3 (12072) - http://www.bohemiancoding.com/sketch -->
    <title>downloads_linux</title>
    <desc>Created with Sketch.</desc>
    <defs></defs>
    <g id="design" stroke="none" stroke-width="1" fill="none" fill-rule="evenodd" sketch:type="MSPage">
        <g id="050-tv_desktop_download" sketch:type="MSArtboardGroup" transform="translate(-437.000000, -515.000000)">
            <g id="Devices" sketch:type="MSLayerGroup" transform="translate(0.000000, 419.000000)">
                <g id="Linux" transform="translate(438.000000, 97.000000)" sketch:type="MSShapeGroup">
                    <g id="downloads_linux">
                        <path d="M14,48 L46,48" id="Stroke-1" stroke="#4A4A4A" stroke-width="2" stroke-linecap="square"></path>
                        <path d="M0,0 L60,0 L60,38 L0,38 L0,0 L0,0 Z" id="Stroke-2" stroke="#4A4A4A" stroke-width="2" stroke-linecap="square"></path>
                        <path d="M40.477292,27.1729076 C39.8410289,26.9113151 39.3167981,26.499375 39.3548252,25.7104437 C39.3918516,24.9225627 38.7925672,24.4004281 38.7925672,24.4004281 C38.7925672,24.4004281 39.3167981,22.675369 38.8295936,21.2510529 C38.3433899,19.8246361 36.7347193,17.5393421 35.5001726,15.8152856 C34.2677226,14.0902265 35.3141352,12.1025245 34.1926691,9.55458767 C33.0691539,7.00665085 30.1519314,7.15599587 28.5802873,8.24352173 C27.0075947,9.32904232 27.4937984,12.0273268 27.5678036,13.3043986 C27.6428571,14.5773166 27.6017325,15.4846545 27.4567721,15.8142353 C27.3087618,16.143816 26.2972788,17.3528996 25.6229886,18.3642251 C24.9496991,19.3755984 24.4634954,21.4755001 23.9752426,22.3375284 C23.4890388,23.1995566 23.8261839,23.9863872 23.8261839,23.9863872 C23.8261839,23.9863872 23.4890388,24.097632 23.2268996,24.6630232 C22.9647603,25.223258 22.4415779,25.4859009 21.5061968,25.6712931 C20.5708157,25.8587383 20.5708157,26.461227 20.7948802,27.1358101 C21.019993,27.8093428 20.7959285,28.1862862 20.5337893,29.0462614 C20.27165,29.9062366 21.5812503,30.1708848 22.8527757,30.3181768 C24.1253496,30.4695748 25.5469344,31.2945055 26.7455031,31.4438506 C27.9409744,31.5941982 28.3161466,30.6199225 28.3161466,30.6199225 C28.3161466,30.6199225 29.6627255,30.3181768 31.0833097,30.2831323 C32.5059428,30.2450321 33.8504727,30.582825 33.8504727,30.582825 C33.8504727,30.582825 34.112612,31.1822103 34.5988157,31.4438028 C35.0860678,31.7064457 36.1334812,31.7445459 36.8067707,31.0339157 C37.4810609,30.3201821 39.2768648,29.4221544 40.2862511,28.8588162 C41.2985918,28.2944754 41.1135551,27.4334975 40.477292,27.1729076 L40.477292,27.1729076 Z M31.7215265,10.642209 C32.3629361,10.642209 32.8810198,11.2796945 32.8810198,12.0655225 C32.8810198,12.6237042 32.6209772,13.1046831 32.2416592,13.3384405 C32.1450189,13.2962343 32.0432797,13.2529777 31.9353456,13.2066177 C32.1635559,13.0933199 32.3259574,12.801887 32.3259574,12.4619934 C32.3259574,12.0191625 32.0525244,11.6596936 31.7143309,11.6596936 C31.3802833,11.6596936 31.1058019,12.0201651 31.1058019,12.4619934 C31.1058019,12.6257573 31.1448774,12.7833143 31.2116869,12.9120337 C31.012259,12.83273 30.8282707,12.7585827 30.6843586,12.7040106 C30.6062553,12.5124594 30.5620333,12.2961765 30.5620333,12.0654747 C30.5620333,11.2796945 31.0801169,10.642209 31.7215265,10.642209 L31.7215265,10.642209 Z M31.6382767,13.6432896 C31.9589815,13.7545344 32.3156644,13.9636079 32.2786856,14.1705806 C32.2406585,14.3786037 32.0720621,14.3786037 31.6382767,14.64435 C31.2034906,14.9079955 30.2619146,15.492962 29.9606999,15.5310622 C29.6574837,15.5691624 29.4888873,15.3992394 29.1681825,15.192219 C28.8474777,14.9841959 28.2440952,14.4908512 28.3962036,14.2282561 C28.3962036,14.2282561 28.8659671,13.8677846 29.0725906,13.6793367 C29.2802148,13.4898385 29.8085914,13.0376974 30.1292962,13.0964233 C30.4500011,13.1509953 31.3175719,13.5299917 31.6382767,13.6432896 L31.6382767,13.6432896 Z M28.7467392,10.8677544 C29.2524807,10.8677544 29.663631,11.4712458 29.663631,12.2158701 C29.663631,12.3528493 29.6502881,12.4795156 29.6245555,12.602076 C29.5012295,12.6442822 29.3758067,12.7122704 29.2545298,12.8152555 C29.1928668,12.8657215 29.1383517,12.9130841 29.0859334,12.9604467 C29.1661335,12.8100991 29.1979657,12.5958692 29.1619876,12.3703238 C29.0941297,11.96354 28.8237942,11.666903 28.5555077,11.709157 C28.2882696,11.7555169 28.1268688,12.1210971 28.1947267,12.5299816 C28.2635853,12.9388662 28.5329202,13.2354554 28.8001583,13.1911485 C28.8155979,13.1880451 28.8299891,13.1839391 28.845381,13.1787826 C28.7148594,13.3044463 28.5945832,13.4125878 28.4722579,13.5042096 C28.1022322,13.3322337 27.8308482,12.8203641 27.8308482,12.214772 C27.8308959,11.4702431 28.2409978,10.8677544 28.7467392,10.8677544 L28.7467392,10.8677544 Z M27.7589398,29.808408 C27.639712,30.3460119 27.0116452,30.7363238 27.0116452,30.7363238 C26.4421917,30.9155091 24.8592061,30.2275576 24.1416946,29.9258119 C23.4252314,29.6281722 21.6006927,29.5355 21.3611886,29.2697537 C21.1237337,28.9978484 21.4804165,28.3995134 21.5719103,27.8320215 C21.6603066,27.2604234 21.3930685,26.9030553 21.4814649,26.5127434 C21.5719103,26.1244846 22.7375508,26.1244846 23.1847267,25.8556826 C23.633904,25.5848277 23.7233487,24.8062092 24.0820806,24.5971835 C24.4408126,24.386057 25.0976618,25.1347874 25.366949,25.55599 C25.6352355,25.9730865 26.6518173,27.7712904 27.0702108,28.2203281 C27.489605,28.6693658 27.8781677,29.2708041 27.7589398,29.808408 L27.7589398,29.808408 Z M34.375609,24.5848176 C34.2676749,25.1131591 34.2676749,27.02256 34.2676749,27.02256 C34.2676749,27.02256 33.1081817,28.6322682 31.3103763,28.8959137 C29.51462,29.1595593 28.6162176,28.9700611 28.6162176,28.9700611 L27.6067838,27.8093905 C27.6067838,27.8093905 28.3910571,27.69509 28.2800732,26.9082595 C28.1669926,26.1214289 25.8860809,25.0338553 25.4738823,24.058577 C25.0637328,23.0853516 25.3998772,21.4344398 25.924108,20.6094613 C26.4473382,19.7855333 26.7824342,17.9873772 27.306665,17.3858911 C27.8308959,16.7885587 28.2410454,15.5135399 28.0539597,14.9502017 C28.0539597,14.9502017 29.1764265,16.3003705 29.9607475,16.0768782 C30.7460693,15.8513328 32.5068959,14.5382138 32.7669384,14.7648096 C33.0280293,14.9903549 35.2730106,19.9368836 35.4960268,21.511595 C35.7211396,23.0852561 35.3459674,24.2840746 35.3459674,24.2840746 C35.3459674,24.2840746 34.4865929,24.0595796 34.375609,24.5848176 L34.375609,24.5848176 Z M40.1175117,28.1162926 C39.7680245,28.4376136 37.8232095,29.2244441 37.2403655,29.8382484 C36.6606189,30.4468962 35.9030312,30.9422938 35.4394626,30.7981052 C34.9727966,30.6508132 34.5667453,30.0112747 34.7702713,29.0782025 C34.972749,28.1482338 35.1485409,27.1286484 35.1197585,26.5456872 C35.0909761,25.9627737 34.972749,25.1748928 35.1197585,25.0585393 C35.264719,24.9452414 35.4959791,25.0019142 35.4959791,25.0019142 C35.4959791,25.0019142 35.3818978,26.1069623 36.0489924,26.400496 C36.716087,26.6888732 37.6762,26.2840947 37.967074,25.9906088 C38.2589964,25.701229 38.4625224,25.2645571 38.4625224,25.2645571 C38.4625224,25.2645571 38.7523957,25.4118491 38.7236133,25.8763083 C38.6948309,26.3418179 38.926091,27.0132975 39.3640222,27.2450497 C39.798856,27.4747011 40.4669989,27.7970247 40.1175117,28.1162926 L40.1175117,28.1162926 Z" id="Shape" fill="#4A4A4A"></path>
                    </g>
                </g>
            </g>
        </g>
    </g>
</svg>