<?xml version="1.0" encoding="UTF-8" standalone="no"?>
<svg width="62px" height="50px" viewBox="0 0 62 50" version="1.1" xmlns="http://www.w3.org/2000/svg" xmlns:xlink="http://www.w3.org/1999/xlink" xmlns:sketch="http://www.bohemiancoding.com/sketch/ns">
    <!-- Generator: Sketch 3.3.3 (12072) - http://www.bohemiancoding.com/sketch -->
    <title>downloads_mac</title>
    <desc>Created with Sketch.</desc>
    <defs></defs>
    <g id="design" stroke="none" stroke-width="1" fill="none" fill-rule="evenodd" sketch:type="MSPage">
        <g id="050-tv_desktop_download" sketch:type="MSArtboardGroup" transform="translate(-267.000000, -515.000000)">
            <g id="Devices" sketch:type="MSLayerGroup" transform="translate(0.000000, 419.000000)">
                <g id="mac" transform="translate(268.000000, 97.000000)" sketch:type="MSShapeGroup">
                    <g id="downloads_mac">
                        <path d="M14,48 L46,48" id="Stroke-1" stroke="#4A4A4A" stroke-width="2" stroke-linecap="square"></path>
                        <path d="M0,0 L60,0 L60,38 L0,38 L0,0 L0,0 Z" id="Stroke-2" stroke="#4A4A4A" stroke-width="2" stroke-linecap="square"></path>
                        <path d="M38.0721739,23.7467401 L38.0721739,23.7858706 C37.6765217,24.9841314 37.1121739,26.011088 36.4234783,26.9641314 C35.7947826,27.8293488 35.0243478,28.9936966 33.6486957,28.9936966 C32.46,28.9936966 31.6704348,28.2293488 30.4521739,28.2084793 C29.1634783,28.1876097 28.4547826,28.8476097 27.2765217,29.0136966 L26.8747826,29.0136966 C26.0095652,28.8884793 25.3113043,28.2032619 24.8026087,27.5858706 C23.3026087,25.7615227 22.1434783,23.405001 21.9278261,20.3893488 L21.9278261,19.5032619 C22.0191304,17.345001 23.0678261,15.5902184 24.4617391,14.7397836 C25.1973913,14.2876097 26.2086957,13.9023923 27.3347826,14.0745662 C27.8173913,14.1493488 28.3104348,14.3145662 28.7426087,14.4780445 C29.1521739,14.6354358 29.6643478,14.9145662 30.1495652,14.8997836 C30.4782609,14.8902184 30.8052174,14.718914 31.1365217,14.5980445 C32.1069565,14.2476097 33.0582609,13.8458706 34.3121739,14.0345662 C35.8191304,14.2623923 36.8886957,14.9319575 37.5495652,15.965001 C36.2747826,16.7763053 35.2669565,17.998914 35.4391304,20.0867401 C35.5921739,21.9832619 36.6947826,23.0928271 38.0721739,23.7467401 Z M33.7794575,8.98630335 L33.9203271,8.98630335 C34.0333706,10.3828251 33.5003271,11.4263034 32.852501,12.1819555 C32.2168488,12.9323903 31.3464141,13.6602164 29.938588,13.5497816 C29.8446749,12.1732599 30.378588,11.2071729 31.0255445,10.4532599 C31.6255445,9.75065118 32.7255445,9.12543379 33.7794575,8.98630335 Z" id="Shape" fill="#4A4A4A"></path>
                    </g>
                </g>
            </g>
        </g>
    </g>
</svg>